<svg width="19" height="20" viewBox="0 0 19 20" fill="none" xmlns="http://www.w3.org/2000/svg">
<path d="M11.5816 4.13338C12.3955 4.29219 13.1436 4.69026 13.73 5.27666C14.3164 5.86306 14.7144 6.6111 14.8732 7.42505M11.5816 0.800049C13.2726 0.987912 14.8496 1.74519 16.0534 2.94756C17.2573 4.14992 18.0166 5.72589 18.2066 7.41672M17.3732 14.0667V16.5667C17.3742 16.7988 17.3266 17.0285 17.2337 17.2412C17.1407 17.4538 17.0043 17.6447 16.8333 17.8016C16.6623 17.9585 16.4604 18.078 16.2405 18.1523C16.0207 18.2267 15.7877 18.2543 15.5566 18.2334C12.9923 17.9547 10.5291 17.0785 8.3649 15.675C6.35143 14.3956 4.64435 12.6885 3.3649 10.675C1.95655 8.50105 1.0801 6.02588 0.806569 3.45005C0.785744 3.2196 0.813131 2.98735 0.886986 2.76807C0.96084 2.54879 1.07954 2.34729 1.23554 2.1764C1.39154 2.00551 1.58141 1.86897 1.79306 1.77548C2.00472 1.68199 2.23352 1.6336 2.4649 1.63338H4.9649C5.36932 1.6294 5.7614 1.77261 6.06804 2.03633C6.37468 2.30004 6.57497 2.66625 6.63157 3.06672C6.73709 3.86677 6.93278 4.65232 7.2149 5.40838C7.32702 5.70665 7.35129 6.03081 7.28482 6.34245C7.21836 6.65409 7.06395 6.94014 6.8399 7.16672L5.78157 8.22505C6.96786 10.3113 8.69528 12.0388 10.7816 13.225L11.8399 12.1667C12.0665 11.9427 12.3525 11.7883 12.6642 11.7218C12.9758 11.6553 13.3 11.6796 13.5982 11.7917C14.3543 12.0738 15.1398 12.2695 15.9399 12.375C16.3447 12.4322 16.7144 12.6361 16.9787 12.948C17.243 13.2599 17.3834 13.658 17.3732 14.0667Z" stroke="#1E1E1E" stroke-width="1.6" stroke-linecap="round" stroke-linejoin="round"/>
</svg>
